<svg xmlns="http://www.w3.org/2000/svg" xmlns:xlink="http://www.w3.org/1999/xlink" x="0" y="0" version="1.1" viewBox="0 0 800 200" style="enable-background:new 0 0 800 200" xml:space="preserve"><style type="text/css">.st0{fill:none}.st1,.st2{fill:none;stroke:#231f20;stroke-width:2.5}.st2{stroke-width:.5}.st3{stroke-width:.75}.st3,.st4{fill:none;stroke:#231f20}.st5{stroke-width:1.25}.st5,.st6,.st7,.st8,.st9{fill:none;stroke:#231f20}.st6{stroke-width:1.5}.st7{stroke-width:1.75}.st8{stroke-width:2}.st9{stroke-width:2.25}.st10{fill:#ffe500}.st11{opacity:3.000000e-02;fill:url(#Undulating_Fine_Lines)}.st12{fill:#e0ba00}.st13{fill:#af0000}.st14{fill:#6d0000}.st15{fill:#910000}.st16{fill:#9b0404}.st17{fill:#8c0000}.st18{fill:#7c0000}.st19{fill:#750000}.st20{fill:#870000}.st21{fill:#9e0000}.st22{fill:#930000}.st23{fill:#a00000}.st24{fill:#900}.st25{fill:#bc0000}.st26{fill:#e53535}.st27{fill:#bf1010}.st28{fill:#cc1919}.st29{fill:#bf0808}.st30{fill:#c41212}.st31{fill:#c10000}.st32{fill:#840000}.st33{fill:#0e350d}.st34{fill:#051e03}.st35{fill:#072304}.st36{fill:#051902}.st37{fill:#072302}.st38{fill:#0a3002}.st39{fill:#0a2603}.st40{fill:#0c2b04}.st41{fill:#0a2602}.st42{fill:#0d2d03}.st43{fill:#123306}.st44{fill:#0d2304}.st45{fill:#102606}.st46{fill:#163505}</style><pattern id="Undulating_Fine_Lines" width="60.8" height="72" y="200" patternUnits="userSpaceOnUse" viewBox="1.3 -72 60.8 72" style="overflow:visible"><g><rect width="60.8" height="72" x="1.3" y="-72" class="st0"/><g><line x1="62" x2="62" y1="-72" y2="0" class="st1"/></g><g><line x1="31.6" x2="31.6" y1="-72" y2="0" class="st2"/><line x1="27.8" x2="27.8" y1="-72" y2="0" class="st3"/><line x1="24" x2="24" y1="-72" y2="0" class="st4"/><line x1="20.2" x2="20.2" y1="-72" y2="0" class="st5"/><line x1="16.4" x2="16.4" y1="-72" y2="0" class="st6"/><line x1="12.6" x2="12.6" y1="-72" y2="0" class="st7"/><line x1="8.8" x2="8.8" y1="-72" y2="0" class="st8"/><line x1="5" x2="5" y1="-72" y2="0" class="st9"/><line x1="1.3" x2="1.3" y1="-72" y2="0" class="st1"/><line x1="35.4" x2="35.4" y1="-72" y2="0" class="st3"/><line x1="39.2" x2="39.2" y1="-72" y2="0" class="st4"/><line x1="43" x2="43" y1="-72" y2="0" class="st5"/><line x1="46.8" x2="46.8" y1="-72" y2="0" class="st6"/><line x1="50.6" x2="50.6" y1="-72" y2="0" class="st7"/><line x1="54.4" x2="54.4" y1="-72" y2="0" class="st8"/><line x1="58.2" x2="58.2" y1="-72" y2="0" class="st9"/><line x1="62" x2="62" y1="-72" y2="0" class="st1"/></g><g><line x1="1.3" x2="1.3" y1="-72" y2="0" class="st1"/></g></g></pattern><g id="Layer_1"><rect width="800" height="200" class="st10"/><rect width="800" height="200" class="st11"/></g><g id="Layer_2"><polyline points="400.3 37 397.3 40.1 391.4 51.8 389.4 61 384 63.8 380.4 70.6 380.2 76.6 380.2 76.6 379 95.8 391.6 131.6 414 157.8 422.9 163.2 423.9 158.3 417.7 145.2 410.6 123.8 406.5 96.2 402.3 77.5 402.9 75 401.8 69.4 397.4 64.5 397.2 59.5 399.3 47.8 403.1 37.6 400.3 37" class="st12"/><polygon points="378.7 71 377.2 74.8 376.3 96.8 390.2 132.5 413.7 158.2 422.9 163.3 423.7 158.4 417 145.3 409.1 124 404 96.2 399.1 77.5 396.5 71.1" class="st13"/><polygon points="376.3 96.8 385.4 69.2 378 69.7 377 79.3" class="st14"/><polygon points="376.3 96.8 384.1 73.1 389.2 77.1 390.2 132.5" class="st15"/><polygon points="389.4 84.5 399.2 77.9 396.5 71.1 388.7 69.8" class="st16"/><polygon points="389.9 115.5 404.2 137 390.2 132.5" class="st17"/><polygon points="404.2 137 413.7 158.2 390.2 132.5" class="st18"/><polygon points="413.7 158.2 419.4 158.2 422.9 163.3" class="st19"/><polygon points="420 151.1 419.4 158.2 422.9 163.3 423.7 158.4" class="st20"/><polygon points="419.4 158.2 404.2 137 413.7 158.2" class="st21"/><polygon points="419.4 158.2 412.2 148.1 409.1 124 417 145.3 420 151.1" class="st22"/><polygon points="410.9 138.1 399.6 121.1 409.1 124" class="st23"/><polygon points="399.6 121.1 404 96.2 409.1 124" class="st24"/><polygon points="404 96.2 392.8 82.2 399.2 77.9" class="st25"/><polygon points="392.8 82.2 389.4 84.5 389.7 106.2 398.4 89.2" class="st26"/><polygon points="393.3 99.2 404 96.2 398.4 89.2" class="st27"/><polygon points="393.3 99.2 397.1 126.2 389.9 115.5 389.7 106.2" class="st28"/><polygon points="399.6 121.1 393.3 99.2 404 96.2" class="st29"/><polygon points="399.6 121.1 397.1 126.2 393.3 99.2" class="st30"/><polygon points="389.4 84.5 385.7 108.4 389.9 115.5" class="st31"/><polygon points="390.2 132.5 389.9 115.5 377.2 94.1 376.3 96.8" class="st32"/><polygon points="376.7 71.3 380.2 64.3 385.5 61.2 387.2 51.9 392.7 39.9 395.6 36.7 398.5 37.2 395 47.7 393.3 59.5 393.7 64.5 398.3 69.4 399.6 74.9 399.1 77.5 393.8 71.8 391.1 76.1 389.4 80.2 384.9 76 383.6 71.4 379.7 74.2 376.8 77.3" class="st33"/><polygon points="376.8 77.3 380.7 70.6 376.7 71.3" class="st34"/><polygon points="380.7 70.6 380.2 64.3 376.7 71.3" class="st35"/><polygon points="380.7 70.6 385.5 61.2 380.2 64.3" class="st36"/><polygon points="380.7 70.6 383.6 71.4 379.7 74.2 376.8 77.3" class="st37"/><polygon points="385.5 61.2 383.6 71.4 380.7 70.6" class="st38"/><polygon points="383.6 71.4 387.4 68.7 389.4 80.2 384.9 76" class="st38"/><polygon points="393.8 71.8 394.5 68.3 399.1 77.5" class="st38"/><polygon points="399.1 77.5 396.5 72.2 398.3 69.4 399.6 74.9" class="st39"/><polygon points="393.8 71.8 391.3 68.9 388.5 75.1 389.4 80.2 391.1 76.1" class="st39"/><polygon points="385.5 61.2 390.4 51.4 390.4 45 387.2 51.9" class="st40"/><polygon points="383.6 71.4 387.4 68.7 388.7 54.8 385.5 61.2" class="st40"/><polygon points="394.5 68.3 393.7 64.5 391.3 68.9 393.8 71.8" class="st40"/><polygon points="391.3 68.9 388.7 54.8 390.4 51.4" class="st41"/><polygon points="395 47.7 390.4 51.4 391 62.5" class="st42"/><polygon points="391 62.5 393.7 64.5 393.3 59.5 395 47.7" class="st43"/><polygon points="388.7 54.8 387.4 68.7 388.5 75.1 391.3 68.9" class="st43"/><polygon points="395.6 36.7 398.5 37.2 392.7 39.9" class="st44"/><polygon points="390.4 51.4 395.6 38.6 392.7 39.9 390.4 45" class="st45"/><polygon points="398.5 37.2 395.6 38.6 395 47.7" class="st46"/></g></svg>