<svg xmlns="http://www.w3.org/2000/svg" xmlns:xlink="http://www.w3.org/1999/xlink" id="Layer_1" x="0" y="0" focusable="false" version="1.1" viewBox="0 0 320 512" style="enable-background:new 0 0 320 512" xml:space="preserve"><style type="text/css">.st0{fill:#21dd00}.st1{fill:#fff}.st2{fill:none;stroke:#fff;stroke-width:10;stroke-miterlimit:10}</style><path d="M293.5,0h-267C0,0,0-0.5,0,26v459.5C0,512-0.5,512,26,512h266.5c26.5,0,27.5-0.5,27.5-27V27C320,0.5,320,0,293.5,0z M161,474.3c-7.2,0-13-6.1-13-13.7s5.8-13.7,13-13.7s13,6.1,13,13.7S168.2,474.3,161,474.3z"/><path d="M103.1,180.5H56c-3.6,0-6.4-2.9-6.4-6.4V127c0-3.6,2.9-6.4,6.4-6.4h47.1c3.6,0,6.4,2.9,6.4,6.4v47.1	C109.5,177.7,106.7,180.5,103.1,180.5z M75.7,167.4l24.6-24.6c0.8-0.8,0.8-2.2,0-3l-3-3c-0.8-0.8-2.2-0.8-3,0l-20.1,20.1l-9.4-9.4	c-0.8-0.8-2.2-0.8-3,0l-3,3c-0.8,0.8-0.8,2.2,0,3l13.9,13.9C73.5,168.3,74.9,168.3,75.7,167.4L75.7,167.4z" class="st0"/><path d="M103.1,286H56c-3.6,0-6.4-2.9-6.4-6.4v-47.1c0-3.6,2.9-6.4,6.4-6.4h47.1c3.6,0,6.4,2.9,6.4,6.4v47.1	C109.5,283.1,106.7,286,103.1,286z M75.7,272.9l24.6-24.6c0.8-0.8,0.8-2.2,0-3l-3-3c-0.8-0.8-2.2-0.8-3,0l-20.1,20.1l-9.4-9.4	c-0.8-0.8-2.2-0.8-3,0l-3,3c-0.8,0.8-0.8,2.2,0,3l13.9,13.9C73.5,273.7,74.9,273.7,75.7,272.9L75.7,272.9z" class="st1"/><line x1="131" x2="257" y1="130" y2="130" class="st2"/><line x1="131" x2="270" y1="236" y2="236" class="st2"/><line x1="131" x2="202" y1="157" y2="157" class="st2"/><line x1="131" x2="170" y1="296" y2="296" class="st2"/><line x1="131" x2="170" y1="183" y2="183" class="st2"/><line x1="131" x2="209" y1="266" y2="266" class="st2"/></svg>